<?xml version="1.0" standalone="no"?>
<!DOCTYPE svg PUBLIC "-//W3C//DTD SVG 20010904//EN"
 "http://www.w3.org/TR/2001/REC-SVG-20010904/DTD/svg10.dtd">
<svg version="1.0" xmlns="http://www.w3.org/2000/svg"
 width="512.000000pt" height="512.000000pt" viewBox="0 0 512.000000 512.000000"
 preserveAspectRatio="xMidYMid meet">

<g transform="translate(0.000000,512.000000) scale(0.100000,-0.100000)"
fill="#000000" stroke="none">
<path d="M0 2560 l0 -2560 820 0 820 0 0 274 0 274 -227 4 c-215 4 -233 6
-308 31 -206 69 -363 203 -457 392 -14 28 -51 120 -83 205 -31 85 -63 167 -71
182 -21 41 -59 55 -160 60 -108 5 -181 35 -238 98 -66 73 -81 114 -81 220 0
80 4 102 23 140 35 66 96 125 166 157 61 28 62 28 266 28 184 0 212 -2 275
-22 88 -28 174 -83 241 -155 59 -63 76 -93 170 -312 106 -248 133 -269 344
-270 l135 -1 17 105 c22 129 59 245 105 329 36 67 105 162 142 195 11 11 21
22 21 26 0 4 -39 21 -87 40 -611 230 -1029 747 -1060 1311 -13 246 46 493 172
713 l45 79 0 277 c0 361 20 481 115 672 l33 68 -569 0 -569 0 0 -2560z"/>
<path d="M1450 5108 c180 -25 349 -111 500 -254 l45 -42 95 24 c182 45 300 58
530 58 229 0 357 -14 534 -59 l91 -22 70 64 c133 122 312 209 480 232 34 5
-471 9 -1175 9 -798 0 -1212 -4 -1170 -10z"/>
<path d="M4126 5068 c39 -77 73 -172 96 -268 18 -73 21 -129 25 -395 l5 -310
38 -65 c153 -263 211 -592 154 -890 -91 -482 -479 -916 -1006 -1125 -67 -27
-125 -50 -127 -52 -2 -1 24 -32 58 -68 118 -127 200 -308 221 -492 6 -50 10
-370 10 -745 l0 -658 760 0 760 0 0 2560 0 2560 -510 0 -510 0 26 -52z"/>
<path d="M1262 4883 c-6 -11 -21 -55 -33 -99 -21 -73 -23 -105 -27 -417 l-4
-339 -44 -69 c-129 -198 -191 -454 -166 -681 30 -274 144 -502 361 -718 136
-136 260 -222 442 -309 145 -68 233 -98 422 -144 l138 -33 -183 -179 c-153
-150 -189 -192 -220 -250 -47 -90 -74 -184 -92 -314 -17 -122 -44 -170 -116
-211 -41 -23 -57 -25 -190 -28 -81 -2 -173 1 -205 7 -93 17 -175 62 -242 134
-54 58 -67 81 -143 261 -97 229 -133 279 -235 327 -59 29 -62 29 -247 29 -186
0 -187 0 -217 -26 -57 -47 -50 -137 13 -175 23 -14 50 -19 102 -19 86 0 147
-17 207 -59 69 -47 99 -99 177 -306 79 -213 103 -258 173 -332 61 -64 127
-108 215 -141 63 -24 83 -26 312 -31 265 -7 276 -9 332 -68 52 -54 58 -86 58
-288 l0 -185 765 0 765 0 0 593 c0 568 -1 595 -21 667 -40 146 -75 197 -283
408 -119 120 -183 192 -172 192 36 0 300 71 394 106 186 70 356 168 502 289
229 191 385 444 435 707 18 96 21 281 5 371 -26 144 -84 295 -160 412 l-38 60
-5 330 c-4 292 -7 339 -25 411 -12 44 -27 93 -34 109 l-12 27 -101 -5 c-175
-8 -282 -61 -455 -225 l-109 -103 -99 31 c-369 115 -785 114 -1173 -1 l-102
-30 -106 104 c-165 161 -274 215 -452 225 -89 4 -98 3 -107 -15z"/>
</g>
</svg>
