<?xml version="1.0" standalone="no"?>
<!DOCTYPE svg PUBLIC "-//W3C//DTD SVG 20010904//EN"
 "http://www.w3.org/TR/2001/REC-SVG-20010904/DTD/svg10.dtd">
<svg version="1.0" xmlns="http://www.w3.org/2000/svg"
 width="512.000000pt" height="512.000000pt" viewBox="0 0 512.000000 512.000000"
 preserveAspectRatio="xMidYMid meet">

<g transform="translate(0.000000,512.000000) scale(0.100000,-0.100000)"
fill="#000000" stroke="none">
<path d="M0 2560 l0 -2560 983 2 c708 1 910 3 723 9 -388 11 -595 43 -806 124
-348 133 -620 404 -754 752 -114 294 -136 563 -136 1664 0 647 12 1079 36
1269 38 303 137 558 293 752 238 298 544 458 980 513 70 9 244 20 387 24 187
6 -15 8 -723 9 l-983 2 0 -2560z"/>
<path d="M3420 5109 c140 -4 301 -13 359 -19 375 -40 664 -162 888 -374 276
-261 412 -585 442 -1055 5 -82 9 152 10 667 l1 792 -977 -2 c-707 -1 -907 -3
-723 -9z"/>
<path d="M1715 4650 c-267 -9 -394 -23 -521 -55 -192 -49 -325 -124 -446 -254
-119 -128 -188 -267 -227 -457 -36 -176 -42 -322 -48 -1114 -5 -808 5 -1272
32 -1450 69 -457 320 -729 750 -814 171 -34 266 -38 1145 -43 1121 -6 1380 5
1592 68 317 94 536 324 618 649 49 195 60 440 60 1375 0 1185 -16 1352 -148
1608 -73 143 -218 285 -367 359 -124 62 -299 103 -512 119 -168 12 -1633 20
-1928 9z m2364 -456 c221 -120 211 -437 -18 -542 -117 -54 -261 -25 -346 70
-56 61 -79 120 -79 203 0 135 82 250 207 291 68 22 173 13 236 -22z m-1308
-339 c188 -28 399 -114 559 -226 96 -68 241 -213 309 -309 236 -336 304 -770
180 -1158 -141 -439 -492 -765 -946 -879 -97 -25 -126 -27 -293 -28 -142 0
-205 4 -270 18 -264 57 -470 168 -661 357 -176 174 -287 365 -352 610 -29 110
-31 124 -31 315 -1 186 1 208 27 308 97 385 340 692 687 867 111 56 259 105
374 124 109 19 299 19 417 1z"/>
<path d="M2476 3409 c-195 -20 -376 -110 -517 -256 -110 -113 -180 -236 -220
-388 -30 -112 -30 -297 0 -410 45 -171 148 -336 286 -454 74 -64 233 -144 340
-172 113 -30 298 -30 410 0 246 65 448 229 563 456 111 221 114 501 7 732
-121 262 -391 463 -657 488 -34 3 -79 7 -98 9 -19 2 -70 -1 -114 -5z"/>
<path d="M5110 1541 c0 -184 -37 -414 -95 -588 -68 -204 -169 -367 -320 -518
-154 -155 -326 -259 -540 -328 -200 -64 -362 -86 -735 -97 -164 -4 75 -7 728
-8 l972 -2 0 810 c0 446 -2 810 -5 810 -3 0 -5 -36 -5 -79z"/>
</g>
</svg>
