<?xml version="1.0" standalone="no"?>
<!DOCTYPE svg PUBLIC "-//W3C//DTD SVG 20010904//EN"
 "http://www.w3.org/TR/2001/REC-SVG-20010904/DTD/svg10.dtd">
<svg version="1.0" xmlns="http://www.w3.org/2000/svg"
 width="512.000000pt" height="512.000000pt" viewBox="0 0 512.000000 512.000000"
 preserveAspectRatio="xMidYMid meet">

<g transform="translate(0.000000,512.000000) scale(0.100000,-0.100000)"
fill="#000000" stroke="none">
<path d="M1 4783 c1 -308 2 -332 14 -268 27 146 92 266 200 370 127 122 255
176 437 183 209 8 345 -40 487 -173 92 -88 153 -176 189 -277 21 -58 27 -96
30 -188 5 -141 -12 -220 -70 -340 -34 -69 -59 -102 -133 -175 -141 -141 -272
-197 -470 -198 -112 -1 -180 12 -273 54 -209 94 -356 280 -397 504 -11 58 -13
-293 -14 -2102 l-1 -2173 2560 0 2560 0 0 98 c-1 95 -1 96 -16 62 -8 -19 -25
-45 -37 -58 -49 -53 -42 -52 -543 -52 -463 0 -467 0 -506 22 -21 12 -49 38
-61 58 l-22 35 -5 1005 c-6 1096 -4 1052 -64 1154 -31 54 -115 130 -176 161
-275 137 -567 28 -683 -257 -22 -53 -22 -56 -27 -1064 l-5 -1011 -27 -35 c-53
-70 -37 -68 -616 -68 l-519 0 -34 23 c-18 12 -44 38 -56 56 l-23 34 0 1618 c0
1122 3 1626 11 1646 15 40 48 73 94 94 37 17 74 19 488 19 381 0 453 -2 484
-15 82 -34 113 -90 113 -201 l0 -76 69 65 c161 151 365 253 585 292 120 20
471 21 589 0 240 -42 439 -141 610 -304 209 -198 332 -449 366 -747 5 -38 9
524 10 1249 l1 1317 -2560 0 -2560 0 1 -337z m1098 -1259 c39 -11 67 -29 102
-64 86 -86 80 48 77 -1690 -3 -1495 -4 -1536 -22 -1574 -26 -52 -79 -104 -130
-127 -38 -17 -72 -19 -441 -19 -399 0 -400 0 -450 24 -56 26 -98 70 -126 131
-18 38 -19 111 -19 1590 0 1538 1 1550 21 1595 32 72 85 118 159 141 14 4 194
8 401 8 314 1 384 -2 428 -15z"/>
<path d="M279 3344 l-24 -26 -3 -1511 c-3 -1386 -2 -1515 13 -1543 10 -18 28
-37 41 -43 17 -7 140 -11 380 -11 363 0 383 2 411 39 10 12 12 358 13 1542 l0
1525 -28 27 -28 27 -375 0 -376 0 -24 -26z"/>
<path d="M600 4904 c-106 -21 -205 -72 -274 -142 -103 -105 -146 -198 -153
-337 -9 -152 40 -288 140 -388 98 -97 206 -145 353 -154 76 -5 103 -2 161 15
243 74 399 317 364 565 -27 191 -155 349 -336 416 -59 22 -199 36 -255 25z"/>
<path d="M3645 3454 c-267 -39 -482 -155 -645 -348 -37 -44 -114 -126 -169
-181 l-101 -100 0 273 0 272 -430 0 -430 0 2 -1577 3 -1578 473 -3 472 -2 0
950 c0 1067 -2 1035 72 1190 33 70 56 100 127 170 97 96 170 138 297 170 200
51 431 -8 585 -149 82 -75 124 -138 157 -239 24 -74 25 -91 33 -407 4 -181 8
-635 8 -1007 l1 -678 425 0 425 0 0 1154 c0 1276 2 1236 -64 1421 -118 331
-389 570 -736 651 -63 15 -435 28 -505 18z"/>
</g>
</svg>
