<?xml version="1.0" standalone="no"?>
<!DOCTYPE svg PUBLIC "-//W3C//DTD SVG 20010904//EN"
 "http://www.w3.org/TR/2001/REC-SVG-20010904/DTD/svg10.dtd">
<svg version="1.0" xmlns="http://www.w3.org/2000/svg"
 width="512.000000pt" height="512.000000pt" viewBox="0 0 512.000000 512.000000"
 preserveAspectRatio="xMidYMid meet">

<g transform="translate(0.000000,512.000000) scale(0.100000,-0.100000)"
fill="#000000" stroke="none">
<path d="M0 2560 l0 -2560 2560 0 2560 0 0 2560 0 2560 -2560 0 -2560 0 0
-2560z m2785 2140 c405 -45 802 -207 1119 -458 91 -72 266 -247 338 -338 429
-542 575 -1263 389 -1926 -133 -471 -423 -884 -825 -1172 -175 -126 -244 -149
-266 -90 -13 33 0 56 44 83 29 19 39 35 66 114 135 394 717 2141 736 2212 14
50 27 129 31 176 l6 86 -48 94 c-90 180 -226 368 -365 504 -70 70 -71 70 -124
69 -102 -3 -199 -73 -254 -184 -23 -46 -27 -68 -27 -135 0 -72 3 -86 33 -140
18 -33 73 -116 122 -185 148 -207 162 -231 193 -308 83 -215 97 -477 41 -750
-41 -199 -295 -1030 -320 -1049 -22 -16 -45 -17 -67 0 -9 7 -175 474 -401
1135 -409 1192 -401 1164 -344 1177 13 3 82 6 153 8 l130 2 0 25 0 25 -605 0
-605 0 0 -25 0 -25 127 -5 c70 -3 131 -9 136 -15 16 -17 312 -739 312 -761 0
-33 -449 -1366 -467 -1386 -21 -23 -55 -23 -76 0 -14 16 -727 2081 -727 2107
0 6 6 20 14 31 13 17 31 20 163 24 l148 5 0 25 0 25 -353 3 -352 2 -34 -52
c-18 -29 -53 -93 -78 -143 l-45 -90 492 -1330 c271 -731 499 -1337 507 -1346
17 -18 205 -95 213 -87 3 2 147 398 321 879 174 481 323 882 332 892 19 22 54
22 75 0 8 -10 158 -405 332 -878 173 -472 317 -860 319 -862 2 -2 19 4 39 12
53 22 84 19 103 -10 13 -21 15 -31 6 -50 -13 -29 -43 -42 -217 -100 -679 -224
-1442 -86 -2009 363 -91 72 -266 247 -338 338 -255 322 -416 719 -459 1131
-14 143 -7 419 16 553 102 612 442 1131 964 1472 58 37 113 68 124 68 37 0 57
-19 57 -55 0 -33 -5 -38 -112 -108 -62 -40 -147 -101 -189 -135 -78 -63 -301
-288 -319 -322 -11 -20 -6 -20 292 -20 277 0 307 -2 345 -20 106 -48 113 -203
11 -256 -23 -12 -64 -19 -131 -22 -86 -4 -97 -6 -92 -21 4 -9 142 -412 307
-896 166 -484 304 -884 308 -888 11 -12 392 1134 386 1158 -3 11 -64 160 -134
330 l-129 310 -107 6 c-114 7 -138 16 -178 70 -50 67 -22 171 56 209 43 20 53
20 659 18 604 -3 616 -3 643 -24 51 -37 69 -71 68 -125 -1 -97 -60 -140 -204
-148 l-95 -6 335 -977 c184 -537 338 -974 341 -970 8 8 153 493 204 677 53
194 68 292 67 445 0 96 -6 162 -20 230 -36 172 -50 199 -235 455 -48 66 -103
153 -124 193 -31 62 -37 84 -41 157 -5 94 7 154 45 230 51 102 140 183 237
215 l40 13 -30 24 c-68 55 -203 138 -312 193 -303 151 -574 214 -917 214 -199
-1 -354 -20 -514 -64 -86 -24 -99 -25 -123 -3 -22 20 -23 56 -3 77 25 25 195
67 370 90 120 17 376 20 500 6z m-951 -149 c10 -11 16 -31 14 -48 -2 -23 -13
-33 -58 -55 -71 -35 -104 -36 -127 -2 -25 39 -3 72 67 100 68 28 82 29 104 5z"/>
<path d="M602 3118 c-85 -309 -100 -579 -52 -883 53 -330 190 -647 399 -920
68 -90 245 -268 341 -345 87 -69 240 -173 246 -167 5 5 -885 2410 -896 2420
-4 5 -21 -43 -38 -105z"/>
<path d="M4506 3120 c-3 -8 -48 -148 -100 -310 -52 -162 -214 -650 -360 -1084
-147 -434 -266 -791 -266 -793 0 -11 114 87 204 175 359 354 564 796 607 1309
14 171 2 365 -36 549 -28 139 -40 177 -49 154z"/>
<path d="M2316 1394 c-158 -438 -285 -799 -282 -801 2 -2 56 -15 120 -28 236
-48 475 -55 706 -20 131 20 311 65 316 79 4 10 -544 1516 -565 1554 -4 8 -127
-317 -295 -784z"/>
</g>
</svg>
